<mxfile host="app.diagrams.net" modified="2020-12-13T15:17:41.928Z" agent="5.0 (Windows NT 10.0; Win64; x64) AppleWebKit/537.36 (KHTML, like Gecko) Chrome/87.0.4280.88 Safari/537.36" etag="HLmt1SZthhk_dCj_yAPM" version="14.0.0" type="github">
  <diagram id="C5RBs43oDa-KdzZeNtuy" name="Page-1">
    <mxGraphModel dx="868" dy="482" grid="1" gridSize="10" guides="1" tooltips="1" connect="1" arrows="1" fold="1" page="1" pageScale="1" pageWidth="827" pageHeight="1169" math="0" shadow="0">
      <root>
        <mxCell id="WIyWlLk6GJQsqaUBKTNV-0" />
        <mxCell id="WIyWlLk6GJQsqaUBKTNV-1" parent="WIyWlLk6GJQsqaUBKTNV-0" />
        <mxCell id="ku6dOIX9YlR24JYwT8dM-21" style="edgeStyle=orthogonalEdgeStyle;rounded=0;orthogonalLoop=1;jettySize=auto;html=1;exitX=1;exitY=0.5;exitDx=0;exitDy=0;entryX=0;entryY=0.5;entryDx=0;entryDy=0;startArrow=none;startFill=0;endArrow=ERmany;endFill=0;" edge="1" parent="WIyWlLk6GJQsqaUBKTNV-1" source="ku6dOIX9YlR24JYwT8dM-2" target="ku6dOIX9YlR24JYwT8dM-19">
          <mxGeometry relative="1" as="geometry" />
        </mxCell>
        <mxCell id="ku6dOIX9YlR24JYwT8dM-2" value="&lt;div style=&quot;box-sizing: border-box ; width: 100% ; background: #e4e4e4 ; padding: 2px&quot;&gt;Approvvigionamenti&lt;/div&gt;&lt;table style=&quot;width: 100% ; font-size: 1em&quot; cellpadding=&quot;2&quot; cellspacing=&quot;0&quot;&gt;&lt;tbody&gt;&lt;tr&gt;&lt;td&gt;PK&lt;/td&gt;&lt;td&gt;Id_approvvigionamento&lt;/td&gt;&lt;/tr&gt;&lt;tr&gt;&lt;td&gt;&lt;br&gt;&lt;br&gt;FK&lt;/td&gt;&lt;td&gt;quantità&lt;br&gt;data_arrivo&lt;br&gt;Id_supermercato&lt;/td&gt;&lt;/tr&gt;&lt;tr&gt;&lt;td&gt;&lt;/td&gt;&lt;td&gt;&lt;br&gt;&lt;/td&gt;&lt;/tr&gt;&lt;/tbody&gt;&lt;/table&gt;" style="verticalAlign=top;align=left;overflow=fill;html=1;" vertex="1" parent="WIyWlLk6GJQsqaUBKTNV-1">
          <mxGeometry x="100" y="570" width="180" height="90" as="geometry" />
        </mxCell>
        <mxCell id="ku6dOIX9YlR24JYwT8dM-12" style="edgeStyle=orthogonalEdgeStyle;rounded=0;orthogonalLoop=1;jettySize=auto;html=1;exitX=0.5;exitY=0;exitDx=0;exitDy=0;entryX=0.5;entryY=1;entryDx=0;entryDy=0;endArrow=ERmany;endFill=0;" edge="1" parent="WIyWlLk6GJQsqaUBKTNV-1" source="ku6dOIX9YlR24JYwT8dM-5" target="ku6dOIX9YlR24JYwT8dM-7">
          <mxGeometry relative="1" as="geometry" />
        </mxCell>
        <mxCell id="ku6dOIX9YlR24JYwT8dM-5" value="&lt;div style=&quot;box-sizing: border-box ; width: 100% ; background: #e4e4e4 ; padding: 2px&quot;&gt;Fornitore&lt;/div&gt;&lt;table style=&quot;width: 100% ; font-size: 1em&quot; cellpadding=&quot;2&quot; cellspacing=&quot;0&quot;&gt;&lt;tbody&gt;&lt;tr&gt;&lt;td&gt;PK&lt;/td&gt;&lt;td&gt;Codice_fiscale&lt;/td&gt;&lt;/tr&gt;&lt;tr&gt;&lt;td&gt;&lt;br&gt;&lt;/td&gt;&lt;td&gt;nome&lt;/td&gt;&lt;/tr&gt;&lt;tr&gt;&lt;td&gt;&lt;/td&gt;&lt;td&gt;sede&lt;/td&gt;&lt;/tr&gt;&lt;/tbody&gt;&lt;/table&gt;" style="verticalAlign=top;align=left;overflow=fill;html=1;" vertex="1" parent="WIyWlLk6GJQsqaUBKTNV-1">
          <mxGeometry x="360" y="220" width="180" height="90" as="geometry" />
        </mxCell>
        <mxCell id="ku6dOIX9YlR24JYwT8dM-6" value="&lt;div style=&quot;box-sizing: border-box ; width: 100% ; background: #e4e4e4 ; padding: 2px&quot;&gt;Approvvigionamento&lt;/div&gt;&lt;table style=&quot;width: 100% ; font-size: 1em&quot; cellpadding=&quot;2&quot; cellspacing=&quot;0&quot;&gt;&lt;tbody&gt;&lt;tr&gt;&lt;td&gt;PK&lt;/td&gt;&lt;td&gt;Id_approvvigionamento&lt;/td&gt;&lt;/tr&gt;&lt;tr&gt;&lt;td&gt;&lt;br&gt;&lt;/td&gt;&lt;td&gt;quantità&lt;/td&gt;&lt;/tr&gt;&lt;tr&gt;&lt;td&gt;&lt;/td&gt;&lt;td&gt;data_arrivo&lt;/td&gt;&lt;/tr&gt;&lt;/tbody&gt;&lt;/table&gt;" style="verticalAlign=top;align=left;overflow=fill;html=1;" vertex="1" parent="WIyWlLk6GJQsqaUBKTNV-1">
          <mxGeometry x="100" y="220" width="180" height="90" as="geometry" />
        </mxCell>
        <mxCell id="ku6dOIX9YlR24JYwT8dM-11" style="edgeStyle=orthogonalEdgeStyle;rounded=0;orthogonalLoop=1;jettySize=auto;html=1;exitX=0;exitY=0.5;exitDx=0;exitDy=0;entryX=1;entryY=0.5;entryDx=0;entryDy=0;startArrow=ERmany;startFill=0;endArrow=ERmany;endFill=0;" edge="1" parent="WIyWlLk6GJQsqaUBKTNV-1" source="ku6dOIX9YlR24JYwT8dM-7" target="ku6dOIX9YlR24JYwT8dM-6">
          <mxGeometry relative="1" as="geometry" />
        </mxCell>
        <mxCell id="ku6dOIX9YlR24JYwT8dM-7" value="&lt;div style=&quot;box-sizing: border-box ; width: 100% ; background: #e4e4e4 ; padding: 2px&quot;&gt;Prodotto&lt;/div&gt;&lt;table style=&quot;width: 100% ; font-size: 1em&quot; cellpadding=&quot;2&quot; cellspacing=&quot;0&quot;&gt;&lt;tbody&gt;&lt;tr&gt;&lt;td&gt;PK&lt;/td&gt;&lt;td&gt;Id_prodotto&lt;/td&gt;&lt;/tr&gt;&lt;tr&gt;&lt;td&gt;&lt;br&gt;&lt;/td&gt;&lt;td&gt;descrizione&lt;/td&gt;&lt;/tr&gt;&lt;tr&gt;&lt;td&gt;&lt;/td&gt;&lt;td&gt;casa_produttrice&lt;br&gt;prezzo&lt;/td&gt;&lt;/tr&gt;&lt;/tbody&gt;&lt;/table&gt;" style="verticalAlign=top;align=left;overflow=fill;html=1;" vertex="1" parent="WIyWlLk6GJQsqaUBKTNV-1">
          <mxGeometry x="360" y="50" width="180" height="90" as="geometry" />
        </mxCell>
        <mxCell id="ku6dOIX9YlR24JYwT8dM-10" style="edgeStyle=orthogonalEdgeStyle;rounded=0;orthogonalLoop=1;jettySize=auto;html=1;exitX=0.5;exitY=1;exitDx=0;exitDy=0;entryX=0.5;entryY=0;entryDx=0;entryDy=0;endArrow=ERmany;endFill=0;" edge="1" parent="WIyWlLk6GJQsqaUBKTNV-1" source="ku6dOIX9YlR24JYwT8dM-8" target="ku6dOIX9YlR24JYwT8dM-6">
          <mxGeometry relative="1" as="geometry" />
        </mxCell>
        <mxCell id="ku6dOIX9YlR24JYwT8dM-8" value="&lt;div style=&quot;box-sizing: border-box ; width: 100% ; background: #e4e4e4 ; padding: 2px&quot;&gt;Supermercato&lt;/div&gt;&lt;table style=&quot;width: 100% ; font-size: 1em&quot; cellpadding=&quot;2&quot; cellspacing=&quot;0&quot;&gt;&lt;tbody&gt;&lt;tr&gt;&lt;td&gt;PK&lt;/td&gt;&lt;td&gt;Id_supermercato&lt;/td&gt;&lt;/tr&gt;&lt;tr&gt;&lt;td&gt;&lt;br&gt;&lt;/td&gt;&lt;td&gt;località&lt;/td&gt;&lt;/tr&gt;&lt;tr&gt;&lt;td&gt;&lt;/td&gt;&lt;td&gt;nome_responsabile&lt;br&gt;indirizzo&lt;/td&gt;&lt;/tr&gt;&lt;/tbody&gt;&lt;/table&gt;" style="verticalAlign=top;align=left;overflow=fill;html=1;" vertex="1" parent="WIyWlLk6GJQsqaUBKTNV-1">
          <mxGeometry x="100" y="50" width="180" height="90" as="geometry" />
        </mxCell>
        <mxCell id="ku6dOIX9YlR24JYwT8dM-13" value="&lt;font color=&quot;#ff0000&quot; style=&quot;font-size: 17px&quot;&gt;MODELLO E/R&lt;/font&gt;" style="text;html=1;resizable=0;autosize=1;align=center;verticalAlign=middle;points=[];fillColor=none;strokeColor=none;rounded=0;" vertex="1" parent="WIyWlLk6GJQsqaUBKTNV-1">
          <mxGeometry x="10" y="10" width="130" height="20" as="geometry" />
        </mxCell>
        <mxCell id="ku6dOIX9YlR24JYwT8dM-14" value="&lt;font color=&quot;#ff0000&quot; style=&quot;font-size: 17px&quot;&gt;MODELLO LOGICO&lt;br&gt;&lt;br&gt;&lt;/font&gt;" style="text;html=1;resizable=0;autosize=1;align=center;verticalAlign=middle;points=[];fillColor=none;strokeColor=none;rounded=0;" vertex="1" parent="WIyWlLk6GJQsqaUBKTNV-1">
          <mxGeometry y="370" width="170" height="40" as="geometry" />
        </mxCell>
        <mxCell id="ku6dOIX9YlR24JYwT8dM-22" style="edgeStyle=orthogonalEdgeStyle;rounded=0;orthogonalLoop=1;jettySize=auto;html=1;exitX=0.5;exitY=1;exitDx=0;exitDy=0;entryX=0.5;entryY=0;entryDx=0;entryDy=0;startArrow=none;startFill=0;endArrow=ERmany;endFill=0;" edge="1" parent="WIyWlLk6GJQsqaUBKTNV-1" source="ku6dOIX9YlR24JYwT8dM-15" target="ku6dOIX9YlR24JYwT8dM-2">
          <mxGeometry relative="1" as="geometry" />
        </mxCell>
        <mxCell id="ku6dOIX9YlR24JYwT8dM-15" value="&lt;div style=&quot;box-sizing: border-box ; width: 100% ; background: #e4e4e4 ; padding: 2px&quot;&gt;Supermercati&lt;/div&gt;&lt;table style=&quot;width: 100% ; font-size: 1em&quot; cellpadding=&quot;2&quot; cellspacing=&quot;0&quot;&gt;&lt;tbody&gt;&lt;tr&gt;&lt;td&gt;PK&lt;/td&gt;&lt;td&gt;Id_supermercato&lt;/td&gt;&lt;/tr&gt;&lt;tr&gt;&lt;td&gt;&lt;br&gt;&lt;/td&gt;&lt;td&gt;località&lt;/td&gt;&lt;/tr&gt;&lt;tr&gt;&lt;td&gt;&lt;/td&gt;&lt;td&gt;nome_responsabile&lt;br&gt;indirizzo&lt;/td&gt;&lt;/tr&gt;&lt;/tbody&gt;&lt;/table&gt;" style="verticalAlign=top;align=left;overflow=fill;html=1;" vertex="1" parent="WIyWlLk6GJQsqaUBKTNV-1">
          <mxGeometry x="100" y="410" width="180" height="90" as="geometry" />
        </mxCell>
        <mxCell id="ku6dOIX9YlR24JYwT8dM-17" style="edgeStyle=orthogonalEdgeStyle;rounded=0;orthogonalLoop=1;jettySize=auto;html=1;exitX=0;exitY=0.5;exitDx=0;exitDy=0;entryX=1;entryY=0.5;entryDx=0;entryDy=0;startArrow=none;startFill=0;endArrow=ERmany;endFill=0;" edge="1" parent="WIyWlLk6GJQsqaUBKTNV-1" source="ku6dOIX9YlR24JYwT8dM-16">
          <mxGeometry relative="1" as="geometry">
            <mxPoint x="520" y="455" as="targetPoint" />
          </mxGeometry>
        </mxCell>
        <mxCell id="ku6dOIX9YlR24JYwT8dM-16" value="&lt;div style=&quot;box-sizing: border-box ; width: 100% ; background: #e4e4e4 ; padding: 2px&quot;&gt;Fornitori&lt;/div&gt;&lt;table style=&quot;width: 100% ; font-size: 1em&quot; cellpadding=&quot;2&quot; cellspacing=&quot;0&quot;&gt;&lt;tbody&gt;&lt;tr&gt;&lt;td&gt;PK&lt;/td&gt;&lt;td&gt;Codice_fiscale&lt;/td&gt;&lt;/tr&gt;&lt;tr&gt;&lt;td&gt;&lt;br&gt;&lt;/td&gt;&lt;td&gt;nome&lt;/td&gt;&lt;/tr&gt;&lt;tr&gt;&lt;td&gt;&lt;/td&gt;&lt;td&gt;sede&lt;/td&gt;&lt;/tr&gt;&lt;/tbody&gt;&lt;/table&gt;" style="verticalAlign=top;align=left;overflow=fill;html=1;" vertex="1" parent="WIyWlLk6GJQsqaUBKTNV-1">
          <mxGeometry x="580" y="410" width="180" height="90" as="geometry" />
        </mxCell>
        <mxCell id="ku6dOIX9YlR24JYwT8dM-20" style="edgeStyle=orthogonalEdgeStyle;rounded=0;orthogonalLoop=1;jettySize=auto;html=1;entryX=0.5;entryY=0;entryDx=0;entryDy=0;startArrow=none;startFill=0;endArrow=ERmany;endFill=0;exitX=0.5;exitY=1;exitDx=0;exitDy=0;" edge="1" parent="WIyWlLk6GJQsqaUBKTNV-1" source="ku6dOIX9YlR24JYwT8dM-18" target="ku6dOIX9YlR24JYwT8dM-19">
          <mxGeometry relative="1" as="geometry">
            <mxPoint x="430" y="540" as="sourcePoint" />
          </mxGeometry>
        </mxCell>
        <mxCell id="ku6dOIX9YlR24JYwT8dM-18" value="&lt;div style=&quot;box-sizing: border-box ; width: 100% ; background: #e4e4e4 ; padding: 2px&quot;&gt;Prodotti&lt;/div&gt;&lt;table style=&quot;width: 100% ; font-size: 1em&quot; cellpadding=&quot;2&quot; cellspacing=&quot;0&quot;&gt;&lt;tbody&gt;&lt;tr&gt;&lt;td&gt;PK&lt;/td&gt;&lt;td&gt;Id_prodotto&lt;/td&gt;&lt;/tr&gt;&lt;tr&gt;&lt;td&gt;&lt;br&gt;&lt;br&gt;&lt;br&gt;&lt;br&gt;FK&lt;/td&gt;&lt;td&gt;descrizione&lt;br&gt;casa_produttrice&lt;br&gt;prezzo&lt;br&gt;&lt;br&gt;Codice_fiscale&lt;/td&gt;&lt;/tr&gt;&lt;tr&gt;&lt;td&gt;&lt;/td&gt;&lt;td&gt;&lt;br&gt;&lt;/td&gt;&lt;/tr&gt;&lt;/tbody&gt;&lt;/table&gt;" style="verticalAlign=top;align=left;overflow=fill;html=1;" vertex="1" parent="WIyWlLk6GJQsqaUBKTNV-1">
          <mxGeometry x="340" y="410" width="180" height="120" as="geometry" />
        </mxCell>
        <mxCell id="ku6dOIX9YlR24JYwT8dM-19" value="&lt;div style=&quot;box-sizing: border-box ; width: 100% ; background: #e4e4e4 ; padding: 2px&quot;&gt;Approvvigionamenti_Prodotti&lt;/div&gt;&lt;table style=&quot;width: 100% ; font-size: 1em&quot; cellpadding=&quot;2&quot; cellspacing=&quot;0&quot;&gt;&lt;tbody&gt;&lt;tr&gt;&lt;td&gt;PK&lt;/td&gt;&lt;td&gt;Id_approv_prodotti&lt;/td&gt;&lt;/tr&gt;&lt;tr&gt;&lt;td&gt;FK&lt;/td&gt;&lt;td&gt;Id_approvvigionamento&lt;/td&gt;&lt;/tr&gt;&lt;tr&gt;&lt;td&gt;&lt;/td&gt;&lt;td&gt;Id_prodotto&lt;/td&gt;&lt;/tr&gt;&lt;/tbody&gt;&lt;/table&gt;" style="verticalAlign=top;align=left;overflow=fill;html=1;" vertex="1" parent="WIyWlLk6GJQsqaUBKTNV-1">
          <mxGeometry x="340" y="570" width="180" height="90" as="geometry" />
        </mxCell>
        <mxCell id="ku6dOIX9YlR24JYwT8dM-23" value="&lt;font color=&quot;#ff0000&quot; style=&quot;font-size: 17px&quot;&gt;TABELLE&lt;br&gt;&lt;br&gt;&lt;/font&gt;" style="text;html=1;resizable=0;autosize=1;align=center;verticalAlign=middle;points=[];fillColor=none;strokeColor=none;rounded=0;" vertex="1" parent="WIyWlLk6GJQsqaUBKTNV-1">
          <mxGeometry x="10" y="730" width="90" height="40" as="geometry" />
        </mxCell>
        <mxCell id="ku6dOIX9YlR24JYwT8dM-24" value="&lt;font style=&quot;font-size: 15px&quot;&gt;Supermercati (&lt;b&gt;Id_supermercato&lt;/b&gt;,località,nome_responsabile,indirizzo)&lt;br&gt;Fornitori (&lt;b&gt;Codice_fiscale&lt;/b&gt;,nome,sede)&lt;br&gt;Prodotti (&lt;b&gt;Id_prodotto&lt;/b&gt;,&lt;u&gt;Codice_fiscale&lt;/u&gt;,descrizione,casa_produttrice,prezzo)&lt;br&gt;Approvvigionamenti (&lt;b&gt;Id_approvvigionamento&lt;/b&gt;,&lt;u&gt;Id_supermercato&lt;/u&gt;,quantità,data_arrivo)&lt;br&gt;&lt;/font&gt;&lt;div style=&quot;font-size: 15px&quot;&gt;&lt;font style=&quot;font-size: 15px&quot;&gt;Approvvigionamenti_Prodotti (&lt;b&gt;Id_approv_prodotti&lt;/b&gt;,&lt;u&gt;Id_approvvigionamento&lt;/u&gt;,&lt;u&gt;Id_prodotto&lt;/u&gt;)&lt;/font&gt;&lt;/div&gt;" style="text;html=1;resizable=0;autosize=1;align=left;verticalAlign=middle;points=[];fillColor=none;strokeColor=none;rounded=0;" vertex="1" parent="WIyWlLk6GJQsqaUBKTNV-1">
          <mxGeometry x="20" y="760" width="600" height="80" as="geometry" />
        </mxCell>
      </root>
    </mxGraphModel>
  </diagram>
</mxfile>
